<svg width="25" height="27" viewBox="0 0 25 27" fill="none" xmlns="http://www.w3.org/2000/svg">
<g opacity="0.3">
<path d="M12.5007 15.8883C8.13058 15.8883 4.57349 12.3313 4.57349 7.96111C4.57349 3.59097 8.13058 0 12.5007 0C16.8709 0 20.428 3.55709 20.428 7.92724C20.428 12.2974 16.8709 15.8883 12.5007 15.8883ZM12.5007 2.71017C9.62117 2.71017 7.24978 5.04768 7.24978 7.96111C7.24978 10.8745 9.62117 13.1782 12.5007 13.1782C15.3803 13.1782 17.7517 10.8407 17.7517 7.92724C17.7517 5.01381 15.3803 2.71017 12.5007 2.71017Z" fill="#ffffff"/>
<path d="M23.6462 27C22.9009 27 22.2911 26.3902 22.2911 25.6449C22.2911 20.2585 17.921 15.8544 12.5006 15.8544C7.08031 15.8544 2.71017 20.2585 2.71017 25.6449C2.71017 26.3902 2.10038 27 1.35508 27C0.609787 27 0 26.3902 0 25.6449C0 18.7679 5.58972 13.1781 12.4668 13.1781C19.3438 13.1781 24.9335 18.7679 24.9335 25.6449C24.9674 26.3902 24.3915 27 23.6462 27Z" fill="#ffffff"/>
</g>
</svg>
